<svg xmlns="http://www.w3.org/2000/svg" viewBox="0 0 64 64" style="enable-background:new 0 0 64 64" xml:space="preserve"><style>.st1{opacity:.3}.st2{fill:#000}.st4{fill:#000}</style><g id="Layer_1"><circle cx="32" cy="32" r="32" style="fill:#1a73e8"/><g class="st1"><path class="st2" d="M40 11.2s0-.1 0 0c0-.2 0-.2 0 0zM24 11.1s0 .1 0 0 0-.1 0 0z"/></g><g class="st1"><path class="st2" d="M48 32c0-6.5-3.8-12-9.4-14.5-1.7-.8-2.6.5-2.6 1.6v8.5c0 .8.7 1.4 1.5 1.4h3.1c1.5 0 1.9 1.1.9 2.4l-7.7 9.8c-1 1.2-2.6 1.2-3.5 0l-7.7-9.8c-1-1.2-.6-2.4.9-2.4h3.1c.8 0 1.5-.6 1.5-1.4v-8.5c0-1.1-1.5-2.1-2.8-1.6-4.3 2-7.6 5.9-8.7 10.6C11.7 28.9 8 33 8 38c0 5.5 4.5 10 10 10h30c4.4 0 8-3.6 8-8s-3.6-8-8-8z"/></g><path d="M48 30c0-6.5-3.8-12-9.4-14.5-1.7-.8-2.6.5-2.6 1.6v8.5c0 .8.7 1.4 1.5 1.4h3.1c1.5 0 1.9 1.1.9 2.4l-7.7 9.8c-1 1.2-2.6 1.2-3.5 0l-7.7-9.8c-1-1.2-.6-2.4.9-2.4h3.1c.8 0 1.5-.6 1.5-1.4v-8.5c0-1.1-1.5-2.1-2.8-1.6-4.3 2-7.6 5.9-8.7 10.6C11.7 26.9 8 31 8 36c0 5.5 4.5 10 10 10h30c4.4 0 8-3.6 8-8s-3.6-8-8-8z" style="fill:#fff"/><path class="st4" d="M40 9.2s0-.1 0 0c0-.2 0-.2 0 0zM24 9.1s0 .1 0 0 0-.1 0 0z"/></g></svg>
